  0
SECTION
  2
HEADER
  9
$ACADVER
  1
AC1009
  9
$INSBASE
 10
0.0
 20
0.0
 30
0.0
  9
$EXTMIN
 10
0.0
 20
0.0
 30
0.0
  9
$EXTMAX
 10
0.0
 20
0.0
 30
0.0
  0
ENDSEC
  0
SECTION
  2
TABLES
  0
TABLE
  2
VPORT
 70
0
  0
ENDTAB
  0
TABLE
  2
LTYPE
 70
1
  0
LTYPE
  2
CONTINUOUS
 70
0
  3
Solid line
 72
65
 73
0
 40
0.0
  0
ENDTAB
  0
TABLE
  2
LAYER
 70
1
  0
LAYER
  2
0
 70
64
 62
7
  6
continuous
  0
ENDTAB
  0
TABLE
  2
STYLE
 70
1
  0
STYLE
  2
STANDARD
 70
0
 40
0
 41
1.0
 50
0.0
 71
0
 42
1
 3
ARIAL.TTF
 4

  0
ENDTAB
  0
TABLE
  2
VIEW
 70
0
  0
ENDTAB
  0
ENDSEC
  0
SECTION
  2
BLOCKS
  0
BLOCK
  8
0
  2
FACEFEAT
 70
0
 10
0.0
 20
0.0
 30
0.0
  3
FACEFEAT
  0
CIRCLE
  8
0
 62
0
 10
-84.9794368478466
 20
-281.2
 30
0.0
 40
1.55
  0
CIRCLE
  8
0
 62
0
 10
-64.9794368478466
 20
-301.2
 30
0.0
 40
1.55
  0
CIRCLE
  8
0
 62
0
 10
75.01640475842
 20
-281.2
 30
0.0
 40
1.55
  0
CIRCLE
  8
0
 62
0
 10
95.01640475842
 20
-301.2
 30
0.0
 40
1.55
  0
CIRCLE
  8
0
 62
0
 10
95.01640475842
 20
-281.2
 30
0.0
 40
1.55
  0
CIRCLE
  8
0
 62
0
 10
75.01640475842
 20
-301.2
 30
0.0
 40
1.55
  0
CIRCLE
  8
0
 62
0
 10
-64.9794368478466
 20
-281.2
 30
0.0
 40
1.55
  0
CIRCLE
  8
0
 62
0
 10
-84.9794368478466
 20
-301.2
 30
0.0
 40
1.55
  0
ARC
  8
0
 62
0
 10
88.6180337829007
 20
-239.227864456699
 30
0.0
 40
1.0
 50
-26.56505117707835
 51
29.999386166612645
  0
LINE
  8
0
 62
0
 10
89.51246097390052
 20
-239.67507805219896
 30
0.0
 11
88.12642653148748
 21
-242.44714693702502
 31
0.0
  0
ARC
  8
0
 62
0
 10
87.2319993404876
 20
-241.999933341525
 30
0.0
 40
1.0
 50
-89.9999740101706
 51
-26.5650511770798
  0
ARC
  8
0
 62
0
 10
-78.6180117438309
 20
-239.227908534838
 30
0.0
 40
1.0
 50
149.99915926189504
 51
-153.4349488229202
  0
LINE
  8
0
 62
0
 10
-78.12641191079454
 20
-242.44717617841087
 30
0.0
 11
-79.51243893483095
 21
-239.67512213033805
 31
0.0
  0
ARC
  8
0
 62
0
 10
-77.2319847197948
 20
-241.999962582911
 30
0.0
 40
1.0
 50
-153.4349488229184
 51
-89.9999740101706
  0
ARC
  8
0
 62
0
 10
65.2319773383337
 20
-285.999977345833
 30
0.0
 40
1.0
 50
-90.0
 51
-26.56505117708017
  0
LINE
  8
0
 62
0
 10
38.476179383301
 20
-286.999977345833
 30
0.0
 11
65.2319773383337
 21
-286.999977345833
 31
0.0
  0
ARC
  8
0
 62
0
 10
23.4757090213115
 20
-285.999976822065
 30
0.0
 40
1.0
 50
-89.99997401017019
 51
29.99938616661608
  0
LINE
  8
0
 62
0
 10
-13.474833730030717
 20
-286.9999935831308
 30
0.0
 11
23.475709474919597
 21
-286.999976822065
 31
0.0
  0
ARC
  8
0
 62
0
 10
-28.5322356661016
 20
-286.100477827358
 30
0.0
 40
1.0
 50
-89.6450141963398
 51
-30.000000000000334
  0
LINE
  8
0
 62
0
 10
-55.09322962903191
 20
-287.26506230846076
 30
0.0
 11
-28.526040034667997
 21
-287.1004586342499
 31
0.0
  0
ARC
  8
0
 62
0
 10
-55.0994252604656
 20
-286.265081501569
 30
0.0
 40
1.0
 50
-153.43494882292003
 51
-89.6450141963339
  0
ARC
  8
0
 62
0
 10
-13.4748341836388
 20
-285.99999358313
 30
0.0
 40
1.0
 50
149.99915926189686
 51
-89.99997401017029
  0
ARC
  8
0
 62
0
 10
38.476179383301
 20
-285.999977345833
 30
0.0
 40
1.0
 50
-150.00000000000333
 51
-90.0
  0
ARC
  8
0
 62
0
 10
-58.0684778145638
 20
-325.0
 30
0.0
 40
5.0
 50
20.793315476827672
 51
90.0
  0
LINE
  8
0
 62
0
 10
-17.604515827603343
 20
-417.4749894837101
 30
0.0
 11
-53.39414231818407
 21
-323.2250105162891
 31
0.0
  0
ARC
  8
0
 62
0
 10
68.5236106372464
 20
-325.0
 30
0.0
 40
5.0
 50
90.0
 51
158.97014243734716
  0
LINE
  8
0
 62
0
 10
63.856642889105544
 20
-323.205727992245
 30
0.0
 11
27.606275560892342
 21
-417.494272007755
 31
0.0
  0
ARC
  8
0
 62
0
 10
22.9393078127515
 20
-415.7
 30
0.0
 40
5.0
 50
-89.99999999999996
 51
-21.029857562652836
  0
LINE
  8
0
 62
0
 10
22.9393078127515
 20
-420.7
 30
0.0
 11
-12.930180331223198
 21
-420.7
 31
0.0
  0
ARC
  8
0
 62
0
 10
-12.9301803312232
 20
-415.7
 30
0.0
 40
5.0
 50
-159.20668452318282
 51
-90.0
  0
LINE
  8
0
 62
0
 10
-58.0684778145638
 20
-320.0
 30
0.0
 11
-87.4794368478465
 21
-320.0
 31
0.0
  0
CIRCLE
  8
0
 62
0
 10
-7.50000000000001
 20
-414.95
 30
0.0
 40
1.2645
  0
CIRCLE
  8
0
 62
0
 10
17.5
 20
-414.95
 30
0.0
 40
1.2645
  0
LINE
  8
0
 62
0
 10
97.94640475842
 20
-320.0
 30
0.0
 11
68.5236106372464
 21
-320.0
 31
0.0
  0
ARC
  8
0
 62
0
 10
97.94640475842
 20
-315.0
 30
0.0
 40
5.0
 50
-90.0
 51
-0.0
  0
LINE
  8
0
 62
0
 10
102.94640475842
 20
-267.4
 30
0.0
 11
102.94640475842
 21
-315.0
 31
0.0
  0
ARC
  8
0
 62
0
 10
97.94640475842
 20
-267.4
 30
0.0
 40
5.0
 50
-0.0
 51
90.0
  0
LINE
  8
0
 62
0
 10
89.330339887499
 20
-262.4
 30
0.0
 11
97.94640475842
 21
-262.4
 31
0.0
  0
LINE
  8
0
 62
0
 10
89.33033988749902
 20
-262.4
 30
0.0
 11
131.44427190999903
 21
-178.17213595499996
 31
0.0
  0
ARC
  8
0
 62
0
 10
122.5
 20
-173.7
 30
0.0
 40
10.0
 50
-26.565051177080466
 51
112.63202892017169
  0
LINE
  8
0
 62
0
 10
6.924056732179771
 20
-211.05115042332343
 30
0.0
 11
118.65188653564086
 21
-164.4700475209557
 31
0.0
  0
ARC
  8
0
 62
0
 10
5.0
 20
-206.436174183801
 30
0.0
 40
5.0
 50
-112.63202892017156
 51
-67.36797107982731
  0
LINE
  8
0
 62
0
 10
3.0759432678202288
 20
-211.05115042332346
 30
0.0
 11
-108.65188653564091
 21
-164.4700475209558
 31
0.0
  0
ARC
  8
0
 62
0
 10
-112.5
 20
-173.7
 30
0.0
 40
9.99999999999998
 50
67.36797107982832
 51
-153.43494882291947
  0
LINE
  8
0
 62
0
 10
-79.33033988749901
 20
-262.4
 30
0.0
 11
-121.444271909999
 21
-178.172135955
 31
0.0
  0
LINE
  8
0
 62
0
 10
-87.4794368478465
 20
-262.4
 30
0.0
 11
-79.330339887499
 21
-262.4
 31
0.0
  0
ARC
  8
0
 62
0
 10
-87.4794368478465
 20
-267.4
 30
0.0
 40
5.0
 50
90.0
 51
-180.0
  0
LINE
  8
0
 62
0
 10
-92.4794368478465
 20
-315.0
 30
0.0
 11
-92.4794368478465
 21
-267.4
 31
0.0
  0
ARC
  8
0
 62
0
 10
-87.4794368478465
 20
-315.0
 30
0.0
 40
5.0
 50
-180.0
 51
-90.0
  0
CIRCLE
  8
0
 62
0
 10
-112.5
 20
-173.7
 30
0.0
 40
2.0
  0
CIRCLE
  8
0
 62
0
 10
-17.2498402646777
 20
-326.2
 30
0.0
 40
1.55
  0
CIRCLE
  8
0
 62
0
 10
27.6857894633155
 20
-326.2
 30
0.0
 40
1.55
  0
CIRCLE
  8
0
 62
0
 10
65.51640475842
 20
-270.2
 30
0.0
 40
1.55
  0
CIRCLE
  8
0
 62
0
 10
122.5
 20
-173.7
 30
0.0
 40
2.0
  0
CIRCLE
  8
0
 62
0
 10
-7.49999999999998
 20
-402.45
 30
0.0
 40
1.2645
  0
CIRCLE
  8
0
 62
0
 10
-55.4794368478466
 20
-312.2
 30
0.0
 40
1.55
  0
CIRCLE
  8
0
 62
0
 10
27.6857894633155
 20
-356.2
 30
0.0
 40
1.55
  0
CIRCLE
  8
0
 62
0
 10
5.00000000000002
 20
-408.7
 30
0.0
 40
2.0
  0
CIRCLE
  8
0
 62
0
 10
-34.2498402646777
 20
-326.2
 30
0.0
 40
1.55
  0
CIRCLE
  8
0
 62
0
 10
-17.2498402646777
 20
-356.2
 30
0.0
 40
1.55
  0
CIRCLE
  8
0
 62
0
 10
44.6857894633155
 20
-326.2
 30
0.0
 40
1.55
  0
CIRCLE
  8
0
 62
0
 10
17.5
 20
-402.45
 30
0.0
 40
1.2645
  0
CIRCLE
  8
0
 62
0
 10
65.51640475842
 20
-312.2
 30
0.0
 40
1.55
  0
CIRCLE
  8
0
 62
0
 10
-55.4794368478466
 20
-270.2
 30
0.0
 40
1.55
  0
LINE
  8
0
 62
0
 10
-29.39202653485651
 20
-208.03275312772
 30
0.0
 11
-10.070214213229782
 21
-241.49994178874312
 31
0.0
  0
ARC
  8
0
 62
0
 10
-10.9362449736713
 20
-241.999932510626
 30
0.0
 40
1.0
 50
-89.99997401017029
 51
29.999386166612837
  0
LINE
  8
0
 62
0
 10
-10.936244520063198
 20
-242.99993251062602
 30
0.0
 11
-77.23198426618673
 21
-242.9999625829108
 31
0.0
  0
LINE
  8
0
 62
0
 10
-79.48402981069808
 20
-238.72789582713983
 30
0.0
 11
-56.434109812744495
 21
-198.805616151622
 31
0.0
  0
ARC
  8
0
 62
0
 10
-54.2690646455775
 20
-200.055647920869
 30
0.0
 40
2.5
 50
67.88979861720902
 51
149.99915926185318
  0
LINE
  8
0
 62
0
 10
-30.61613037725176
 20
-206.96657585663965
 30
0.0
 11
-53.328091586868766
 21
-197.7394938450821
 31
0.0
  0
ARC
  8
0
 62
0
 10
-31.5571034359607
 20
-209.282729932427
 30
0.0
 40
2.5
 50
29.99938616660379
 51
67.88979861720902
  0
LINE
  8
0
 62
0
 10
63.329224658505645
 20
-197.73903351737988
 30
0.0
 11
40.617571947880705
 21
-206.9659901964981
 31
0.0
  0
ARC
  8
0
 62
0
 10
64.2701977172145
 20
-200.055187593167
 30
0.0
 40
2.5
 50
29.999386166604566
 51
112.11020138279098
  0
LINE
  8
0
 62
0
 10
66.43527461831891
 20
-198.80521078845987
 30
0.0
 11
89.48406454334253
 21
-238.72787373481592
 31
0.0
  0
LINE
  8
0
 62
0
 10
87.2319997940957
 20
-242.99993334152506
 30
0.0
 11
20.936198164858283
 21
-242.99996341383792
 31
0.0
  0
ARC
  8
0
 62
0
 10
20.9361977112502
 20
-241.999963413838
 30
0.0
 40
1.0
 50
149.99915926184605
 51
-89.99997401017019
  0
LINE
  8
0
 62
0
 10
20.070179644383252
 20
-241.49995070613897
 30
0.0
 11
39.39349983942234
 21
-208.03211250303798
 31
0.0
  0
ARC
  8
0
 62
0
 10
41.5585450065895
 20
-209.282144272285
 30
0.0
 40
2.5
 50
112.11020138279113
 51
149.9991592618547
  0
LINE
  8
0
 62
0
 10
-68.28388542768288
 20
-191.6634735911066
 30
0.0
 11
-91.61747405108775
 21
-182.18384592421285
 31
0.0
  0
ARC
  8
0
 62
0
 10
-69.2248584863918
 20
-193.979627666894
 30
0.0
 40
2.5
 50
-30.000000000000053
 51
67.88979861720917
  0
LINE
  8
0
 62
0
 10
-67.05979497693073
 20
-195.22962766689398
 30
0.0
 11
-83.31908204062981
 21
-223.39153895606813
 31
0.0
  0
ARC
  8
0
 62
0
 10
-85.4841455500911
 20
-222.141538956068
 30
0.0
 40
2.5
 50
-153.43494882291998
 51
-30.00000000000078
  0
LINE
  8
0
 62
0
 10
-87.72021352759099
 20
-223.259572944818
 30
0.0
 11
-106.54098300562501
 21
-185.61803398874994
 31
0.0
  0
ARC
  8
0
 62
0
 10
-104.304915028125
 20
-184.5
 30
0.0
 40
2.5
 50
90.0
 51
-153.43494882292217
  0
LINE
  8
0
 62
0
 10
-104.30491502812501
 20
-181.9999999999999
 30
0.0
 11
-92.55844710979662
 21
-181.99999999999991
 31
0.0
  0
ARC
  8
0
 62
0
 10
-92.5584471097966
 20
-184.5
 30
0.0
 40
2.5
 50
67.88979861720888
 51
90.0
  0
LINE
  8
0
 62
0
 10
102.558447109796
 20
-182.0
 30
0.0
 11
114.304915028125
 21
-182.0
 31
0.0
  0
ARC
  8
0
 62
0
 10
114.304915028125
 20
-184.5
 30
0.0
 40
2.5
 50
-26.565051177077837
 51
90.0
  0
LINE
  8
0
 62
0
 10
116.540983005625
 20
-185.61803398875
 30
0.0
 11
97.72112673906803
 21
-223.25774652186394
 31
0.0
  0
ARC
  8
0
 62
0
 10
95.4850587615685
 20
-222.139712533114
 30
0.0
 40
2.5
 50
-150.00000000000085
 51
-26.56505117708135
  0
LINE
  8
0
 62
0
 10
93.31999525210747
 20
-223.3897125331139
 30
0.0
 11
77.06138882528644
 21
-195.22898014159392
 31
0.0
  0
ARC
  8
0
 62
0
 10
79.2264523347474
 20
-193.978980141594
 30
0.0
 40
2.5
 50
112.11020138279113
 51
-150.00000000000014
  0
LINE
  8
0
 62
0
 10
101.61747405108794
 20
-182.18384592421285
 30
0.0
 11
78.28547927603853
 21
-191.66282606580685
 31
0.0
  0
ARC
  8
0
 62
0
 10
102.558447109796
 20
-184.5
 30
0.0
 40
2.5
 50
90.0
 51
112.1102013827742
  0
LINE
  8
0
 62
0
 10
23.29564182514375
 20
-215.93450114251002
 30
0.0
 11
5.867009252415521
 21
-246.12177826492513
 31
0.0
  0
ARC
  8
0
 62
0
 10
5.00098384863085
 20
-245.621778264925
 30
0.0
 40
1.0
 50
-149.99999999999994
 51
-30.00000000000013
  0
LINE
  8
0
 62
0
 10
4.134958444846416
 20
-246.121778264925
 30
0.0
 11
-13.293071159192593
 21
-215.93554551491488
 31
0.0
  0
ARC
  8
0
 62
0
 10
-12.4270457554083
 20
-215.435545514915
 30
0.0
 40
1.0
 50
67.8897986172146
 51
-150.0000000000019
  0
LINE
  8
0
 62
0
 10
4.059026941291386
 20
-221.05388947033055
 30
0.0
 11
-12.050656531924773
 21
-214.5090838845999
 31
0.0
  0
ARC
  8
0
 62
0
 10
4.99999999999999
 20
-218.737735394544
 30
0.0
 40
2.5
 50
-112.11020138279079
 51
-67.88979861720884
  0
LINE
  8
0
 62
0
 10
22.053227197875714
 20
-214.50803951219487
 30
0.0
 11
5.940973058708622
 21
-221.05388947033063
 31
0.0
  0
ARC
  8
0
 62
0
 10
22.4296164213593
 20
-215.43450114251
 30
0.0
 40
1.0
 50
-30.000000000001645
 51
112.11020138278589
  0
LINE
  8
0
 62
0
 10
20.000983848622496
 20
-252.99999999999997
 30
0.0
 11
78.8049150281253
 21
-253.0
 31
0.0
  0
ARC
  8
0
 62
0
 10
78.8049150281253
 20
-255.5
 30
0.0
 40
2.5
 50
-26.56505117708003
 51
90.0
  0
LINE
  8
0
 62
0
 10
81.040983005625
 20
-256.61803398874997
 30
0.0
 11
76.940983005625
 21
-264.81803398875
 31
0.0
  0
ARC
  8
0
 62
0
 10
74.7049150281253
 20
-263.7
 30
0.0
 40
2.5
 50
-90.0
 51
-26.56505117708003
  0
LINE
  8
0
 62
0
 10
65.51640475841998
 20
-266.2
 30
0.0
 11
74.7049150281253
 21
-266.2
 31
0.0
  0
ARC
  8
0
 62
0
 10
65.51640475842
 20
-270.2
 30
0.0
 40
4.0
 50
90.0
 51
-128.86169888051927
  0
LINE
  8
0
 62
0
 10
63.0066340487125
 20
-273.314651025642
 30
0.0
 11
68.34289938346672
 21
-277.6145877841911
 31
0.0
  0
ARC
  8
0
 62
0
 10
66.7742926912992
 20
-279.561244673652
 30
0.0
 40
2.5
 50
-26.56505117708003
 51
51.13830112194956
  0
LINE
  8
0
 62
0
 10
69.01036066879897
 20
-280.67927866240206
 30
0.0
 11
66.12640452933351
 21
-286.44719094133296
 31
0.0
  0
LINE
  8
0
 62
0
 10
37.61015397951658
 20
-286.4999773458329
 30
0.0
 11
19.13495844483805
 21
-254.49999999999997
 31
0.0
  0
ARC
  8
0
 62
0
 10
20.0009838486225
 20
-254.0
 30
0.0
 40
1.0
 50
90.0
 51
-150.0000000000019
  0
LINE
  8
0
 62
0
 10
-9.132990747576471
 20
-254.4999999999999
 30
0.0
 11
-27.666210262317307
 21
-286.60047782735796
 31
0.0
  0
LINE
  8
0
 62
0
 10
-55.99385245146549
 20
-286.71229509706893
 30
0.0
 11
-58.998802529230474
 21
-280.702394941539
 31
0.0
  0
ARC
  8
0
 62
0
 10
-56.7627345517306
 20
-279.584360952789
 30
0.0
 40
2.5
 50
128.87880528005564
 51
-153.4349488229199
  0
LINE
  8
0
 62
0
 10
-52.9687363325803
 20
-273.313901559562
 30
0.0
 11
-58.33192237377196
 21
-277.63817247806315
 31
0.0
  0
ARC
  8
0
 62
0
 10
-55.4794368478466
 20
-270.2
 30
0.0
 40
4.0
 50
-51.12119471994909
 51
90.0
  0
LINE
  8
0
 62
0
 10
-64.7049150281252
 20
-266.2
 30
0.0
 11
-55.4794368478466
 21
-266.2
 31
0.0
  0
ARC
  8
0
 62
0
 10
-64.7049150281252
 20
-263.7
 30
0.0
 40
2.5
 50
-153.43494882291998
 51
-90.0
  0
LINE
  8
0
 62
0
 10
-66.940983005625
 20
-264.81803398874996
 30
0.0
 11
-71.04098300562501
 21
-256.61803398874997
 31
0.0
  0
ARC
  8
0
 62
0
 10
-68.8049150281253
 20
-255.5
 30
0.0
 40
2.5
 50
90.0
 51
-153.43494882291998
  0
LINE
  8
0
 62
0
 10
-68.8049150281253
 20
-252.99999999999994
 30
0.0
 11
-9.99901615136072
 21
-252.99999999999997
 31
0.0
  0
ARC
  8
0
 62
0
 10
-9.99901615136072
 20
-254.0
 30
0.0
 40
1.0
 50
-30.00000000000013
 51
90.0
  0
LINE
  8
0
 62
0
 10
5.867014609080979
 20
-253.50003172104098
 30
0.0
 11
24.341739781753322
 21
-285.4999861001819
 31
0.0
  0
LINE
  8
0
 62
0
 10
-14.340852250505758
 20
-285.499980875432
 30
0.0
 11
4.134965781772593
 21
-253.5000097352251
 31
0.0
  0
ARC
  8
0
 62
0
 10
5.00098384863927
 20
-254.000022442924
 30
0.0
 40
1.0
 50
29.999386166614478
 51
149.99915926184417
  0
ENDBLK
  0
ENDSEC
  0
SECTION
  2
ENTITIES
  0
INSERT
  2
FACEFEAT
  8
0
 62
0
 10
0.0
 20
0.0
 30
0.0
  0
ENDSEC
  0
EOF
