0
SECTION
2
HEADER
9
$INSUNITS
70
4
9
$ACADVER
1
AC1014
9
$HANDSEED
5
FFFF
0
ENDSEC
0
SECTION
2
TABLES
0
TABLE
2
VPORT
5
8
100
AcDbSymbolTable
0
ENDTAB
0
TABLE
2
LTYPE
5
5
100
AcDbSymbolTable
0
LTYPE
5
14
100
AcDbSymbolTableRecord
100
AcDbLinetypeTableRecord
2
BYBLOCK
70
0
0
LTYPE
5
15
100
AcDbSymbolTableRecord
100
AcDbLinetypeTableRecord
2
BYLAYER
70
0
0
ENDTAB
0
TABLE
2
LAYER
5
2
100
AcDbSymbolTable
70
2
0
LAYER
5
50
100
AcDbSymbolTableRecord
100
AcDbLayerTableRecord
2
0
70
0
6
CONTINUOUS
0
ENDTAB
0
TABLE
2
STYLE
5
3
100
AcDbSymbolTable
70
1
0
STYLE
5
11
100
AcDbSymbolTableRecord
100
AcDbTextStyleTableRecord
2
STANDARD
70
0
0
ENDTAB
0
TABLE
2
VIEW
5
6
100
AcDbSymbolTable
70
0
0
ENDTAB
0
TABLE
2
UCS
5
7
100
AcDbSymbolTable
70
0
0
ENDTAB
0
TABLE
2
APPID
5
9
100
AcDbSymbolTable
70
2
0
APPID
5
12
100
AcDbSymbolTableRecord
100
AcDbRegAppTableRecord
2
ACAD
70
0
0
ENDTAB
0
TABLE
2
DIMSTYLE
5
A
100
AcDbSymbolTable
70
1
0
ENDTAB
0
TABLE
2
BLOCK_RECORD
5
1
100
AcDbSymbolTable
70
1
0
BLOCK_RECORD
5
1F
100
AcDbSymbolTableRecord
100
AcDbBlockTableRecord
2
*MODEL_SPACE
0
BLOCK_RECORD
5
1B
100
AcDbSymbolTableRecord
100
AcDbBlockTableRecord
2
*PAPER_SPACE
0
ENDTAB
0
ENDSEC
0
SECTION
2
BLOCKS
0
BLOCK
5
20
100
AcDbEntity
100
AcDbBlockBegin
2
*MODEL_SPACE
0
ENDBLK
5
21
100
AcDbEntity
100
AcDbBlockEnd
0
BLOCK
5
1C
100
AcDbEntity
100
AcDbBlockBegin
2
*PAPER_SPACE
0
ENDBLK
5
1D
100
AcDbEntity
100
AcDbBlockEnd
0
ENDSEC
0
SECTION
2
ENTITIES
0
LINE
5
100
100
AcDbEntity
8
0
100
AcDbLine
10
-95.999999708406961
20
284.10005354591124
30
8.8817841970012523e-15
11
-63.999999708407188
21
284.10005354591135
31
8.8817841970012523e-15
0
ELLIPSE
5
101
100
AcDbEntity
8
0
100
AcDbEllipse
10
-63.999999708407188
20
279.10005354591135
30
0
11
-3.5355339059327413
21
3.5355339059327413
31
0.0
40
0.99999999999999978
41
3.9269908169872414
42
5.4977871437821406
0
LINE
5
102
100
AcDbEntity
8
0
100
AcDbLine
10
-58.999999708407188
20
279.10005354591129
30
0
11
-58.999999708407174
21
225.0996747431326
31
8.8817841970012523e-15
0
ARC
5
103
100
AcDbEntity
8
0
100
AcDbCircle
10
-63.999999708407174
20
225.09967474313257
30
-4.0856207306205761e-13
40
5
210
0
220
-1.7763568394002505e-15
230
1
100
AcDbArc
50
-90
51
0
0
LINE
5
104
100
AcDbEntity
8
0
100
AcDbLine
10
-63.999999708407174
20
220.09967474313257
30
-4.1744385725905886e-13
11
-68.999999708406946
21
220.09967474313254
31
0
0
ELLIPSE
5
105
100
AcDbEntity
8
0
100
AcDbEllipse
10
-68.999999708406989
20
219.09967474313251
30
8.8817841970012523e-15
11
0.70710678118652304
21
0.70710678118657322
31
0.0
40
0.99999999999999989
41
0.78539816339738799
42
2.3561944901923448
0
LINE
5
106
100
AcDbEntity
8
0
100
AcDbLine
10
-69.999999708406989
20
219.09967474313248
30
0
11
-69.999999708407046
21
-99.500000000000242
31
0
0
ELLIPSE
5
107
100
AcDbEntity
8
0
100
AcDbEllipse
10
-68.999999708407046
20
-99.500000000000242
30
0
11
0.70710678118656067
21
-0.70710678118653547
31
0.0
40
1
41
3.9269908169872214
42
5.4977871437821175
0
LINE
5
108
100
AcDbEntity
8
0
100
AcDbLine
10
-68.999999708407046
20
-100.50000000000026
30
8.8817841970012523e-15
11
-67.499999999999801
21
-100.50000000000024
31
8.8817841970012523e-15
0
ARC
5
109
100
AcDbEntity
8
0
100
AcDbCircle
10
-67.499999999999801
20
-101.50000000000023
30
5.9507954119908391e-13
40
0.99999999999999645
210
-8.8817841970012839e-15
220
0
230
1
100
AcDbArc
50
0
51
90
0
LINE
5
110
100
AcDbEntity
8
0
100
AcDbLine
10
-66.499999999999801
20
-101.50000000000023
30
6.0396132539608516e-13
11
-66.499999999999801
21
-147.87500000000023
31
8.8817841970012523e-15
0
ARC
5
111
100
AcDbEntity
8
0
100
AcDbCircle
10
-67.499999999999801
20
-147.87500000000023
30
7.7271522513910895e-13
40
0.99999999999999645
210
0
220
8.8817841970012839e-15
230
1
100
AcDbArc
50
-90
51
0
0
LINE
5
112
100
AcDbEntity
8
0
100
AcDbLine
10
-67.499999999999801
20
-148.87500000000023
30
7.815970093361102e-13
11
-92.499999999999858
21
-148.87500000000023
31
0
0
ARC
5
113
100
AcDbEntity
8
0
100
AcDbCircle
10
-92.499999999999858
20
-147.87500000000023
30
6.8389738316909643e-13
40
0.99999999999999645
210
0
220
0
230
1
100
AcDbArc
50
180
51
270
0
LINE
5
114
100
AcDbEntity
8
0
100
AcDbLine
10
-93.499999999999858
20
-147.87500000000023
30
6.8389738316909643e-13
11
-93.499999999999829
21
-101.50000000000021
31
8.8817841970012523e-15
0
ARC
5
115
100
AcDbEntity
8
0
100
AcDbCircle
10
-92.499999999999844
20
-101.50000000000021
30
5.0626169922907138e-13
40
0.99999999999999645
210
0
220
-8.8817841970012839e-15
230
1
100
AcDbArc
50
90
51
180
0
LINE
5
116
100
AcDbEntity
8
0
100
AcDbLine
10
-92.499999999999844
20
-100.50000000000023
30
5.1514348342607263e-13
11
-90.999999708407046
21
-100.50000000000024
31
0
0
ELLIPSE
5
117
100
AcDbEntity
8
0
100
AcDbEllipse
10
-90.999999708407046
20
-99.500000000000242
30
8.8817841970012523e-15
11
0.70710678118656067
21
0.70710678118653547
31
0.0
40
1
41
3.9269908169872738
42
5.4977871437820953
0
LINE
5
118
100
AcDbEntity
8
0
100
AcDbLine
10
-89.999999708407032
20
-99.500000000000284
30
8.8817841970012523e-15
11
-89.99999970840706
21
219.09967474313251
31
0
0
ELLIPSE
5
119
100
AcDbEntity
8
0
100
AcDbEllipse
10
-90.99999970840706
20
219.09967474313248
30
8.8817841970012523e-15
11
-0.70710678118657322
21
0.70710678118652304
31
0.0
40
0.99999999999999989
41
3.9269908169872614
42
5.4977871437820873
0
LINE
5
120
100
AcDbEntity
8
0
100
AcDbLine
10
-90.999999708407017
20
220.09967474313245
30
0
11
-95.999999708406833
21
220.09967474313257
31
0
0
ARC
5
121
100
AcDbEntity
8
0
100
AcDbCircle
10
-95.999999708406918
20
225.09967474313257
30
-1.7763568394002505e-13
40
5
210
0
220
0
230
1
100
AcDbArc
50
180
51
270.00000000000097
0
LINE
5
122
100
AcDbEntity
8
0
100
AcDbLine
10
-100.99999970840692
20
225.09967474313257
30
-1.7763568394002505e-13
11
-100.99999970840693
21
279.10005354591124
31
8.8817841970012523e-15
0
ELLIPSE
5
123
100
AcDbEntity
8
0
100
AcDbEllipse
10
-95.999999708406932
20
279.10005354591124
30
8.8817841970012523e-15
11
3.5355339059327413
21
3.5355339059327413
31
0.0
40
0.99999999999999978
41
0.78539816339745583
42
2.3561944901923448
0
LINE
5
124
100
AcDbEntity
8
0
100
AcDbLine
10
-180.00000268220919
20
309.50003814697288
30
0
11
-180.00000268220919
21
89.500038146972855
31
0
0
ARC
5
125
100
AcDbEntity
8
0
100
AcDbCircle
10
-179.00000268220919
20
89.500038146972855
30
-8.7929663550312398e-13
40
1.0000000000000142
210
8.7929663550311146e-13
220
0
230
1
100
AcDbArc
50
180
51
270
0
LINE
5
126
100
AcDbEntity
8
0
100
AcDbLine
10
-179.00000268220919
20
88.500038146972869
30
-8.7929663550312398e-13
11
-147.50000001643406
21
88.500038146972869
31
8.8817841970012523e-15
0
ARC
5
127
100
AcDbEntity
8
0
100
AcDbCircle
10
-147.50000001643406
20
86.000038146972869
30
0
40
2.5
210
0
220
0
230
1
100
AcDbArc
50
0
51
90
0
LINE
5
128
100
AcDbEntity
8
0
100
AcDbLine
10
-145.00000001643406
20
86.000038146972869
30
0
11
-145.00000001643394
21
8.0230508931076248
31
8.8817841970012523e-15
0
ARC
5
129
100
AcDbEntity
8
0
100
AcDbCircle
10
-147.50000001643394
20
8.0230508931076265
30
8.8817841970012523e-15
40
2.5
210
0
220
0
230
1
100
AcDbArc
50
270
51
360
0
ARC
5
130
100
AcDbEntity
8
0
100
AcDbCircle
10
-147.49999999998482
20
3.0230508931076274
30
0
40
2.5
210
2.337562731770489e-23
220
-3.5527136788005009e-15
230
1
100
AcDbArc
50
90.000000376986094
51
180
0
LINE
5
131
100
AcDbEntity
8
0
100
AcDbLine
10
-149.99999999998482
20
3.0230508931076265
30
0
11
-149.99999999998482
21
-22.499961853032101
31
0
0
ELLIPSE
5
132
100
AcDbEntity
8
0
100
AcDbEllipse
10
-152.49999999998482
20
-22.499961853032097
30
8.8817841970012523e-15
11
1.7677669529663675
21
1.7677669529663738
31
0.0
40
0.99999999999999978
41
3.9269908169872463
42
5.4977871437821326
0
LINE
5
133
100
AcDbEntity
8
0
100
AcDbLine
10
-152.49999999998482
20
-24.999961853032097
30
8.8817841970012523e-15
11
-179.00000268220919
21
-24.99996185303209
31
8.8817841970012523e-15
0
ARC
5
134
100
AcDbEntity
8
0
100
AcDbCircle
10
-179.00000268220919
20
-25.999961853032115
30
0
40
1.0000000000000231
210
0
220
-8.8817841970010472e-15
230
1
100
AcDbArc
50
90
51
180
0
LINE
5
135
100
AcDbEntity
8
0
100
AcDbLine
10
-180.00000268220919
20
-25.999961853032115
30
0
11
-180.00000268220919
21
-169.00000000786409
31
0
0
ARC
5
136
100
AcDbEntity
8
0
100
AcDbCircle
10
-179.00000268220919
20
-169.00000000786409
30
-2.9576341816735608e-10
40
1.0000000000000142
210
1.6431300764452083e-12
220
0
230
1
100
AcDbArc
50
180
51
269.99999954939977
0
LINE
5
137
100
AcDbEntity
8
0
100
AcDbLine
10
-179.00000269007364
20
-170.00000000786412
30
-1.6431300764452317e-12
11
-96.298993647605343
21
-170.00000065826637
31
0
0
ARC
5
138
100
AcDbEntity
8
0
100
AcDbCircle
10
-96.2989936397409
20
-169.00000065826634
30
0
40
1.0000000000000142
210
0
220
0
230
1
100
AcDbArc
50
269.99999954940057
51
359.99999829245274
0
LINE
5
139
100
AcDbEntity
8
0
100
AcDbLine
10
-95.2989936397409
20
-169.00000069070714
30
0
11
-95.298993607298868
21
-167.99996182058999
31
0
0
ARC
5
140
100
AcDbEntity
8
0
100
AcDbCircle
10
-94.298993607298854
20
-167.99996185303075
30
0
40
1.0000000000000142
210
0
220
-8.8817841970011261e-15
230
1
100
AcDbArc
50
90
51
179.99999829245272
0
LINE
5
141
100
AcDbEntity
8
0
100
AcDbLine
10
-94.298993607298854
20
-166.99996185303075
30
8.8817841970012523e-15
11
94.29900045644834
21
-166.99996185303064
31
0
0
ARC
5
142
100
AcDbEntity
8
0
100
AcDbCircle
10
94.299000456448354
20
-167.99996185303064
30
8.8817841970012523e-15
40
0.999999999999997
210
0
220
-0
230
1
100
AcDbArc
50
1.7075472925031877e-06
51
90.00000000000081
0
LINE
5
143
100
AcDbEntity
8
0
100
AcDbLine
10
95.299000456448354
20
-167.99996182058987
30
8.8817841970012523e-15
11
95.299000488890456
21
-169.0000022053944
31
8.8817841970012523e-15
0
ARC
5
144
100
AcDbEntity
8
0
100
AcDbCircle
10
96.299000488890414
20
-169.0000021729536
30
0
40
0.99999999999996148
210
8.8817841970015884e-15
220
2.8813207672072093e-22
230
1
100
AcDbArc
50
180.00000170754728
51
269.99999954939733
0
LINE
5
145
100
AcDbEntity
8
0
100
AcDbLine
10
96.299000481025914
20
-170.00000217295363
30
0
11
178.99999999213549
21
-170.00000282335574
31
8.8817841970012523e-15
0
ARC
5
146
100
AcDbEntity
8
0
100
AcDbCircle
10
179
20
-169.00000282335577
30
-3.730349362740526e-13
40
0.99999999999997868
210
3.0035841100967853e-21
220
3.8191672047106198e-13
230
1
100
AcDbArc
50
-90.00000045060348
51
0
0
LINE
5
147
100
AcDbEntity
8
0
100
AcDbLine
10
180
20
-169.00000282335577
30
-3.8191672047105385e-13
11
179.99999999999994
21
-27.499961853032207
31
-1.7763568394002505e-14
0
ARC
5
148
100
AcDbEntity
8
0
100
AcDbCircle
10
177.49999999999986
20
-27.499961853032207
30
-1.8207657603852567e-12
40
2.5000000000000711
210
-7.2120087679648119e-13
220
0
230
1
100
AcDbArc
50
0
51
90.000000000001961
0
LINE
5
149
100
AcDbEntity
8
0
100
AcDbLine
10
177.49999999999977
20
-24.999961853032207
30
-1.7674750552032492e-12
11
152.50000000001532
21
-24.999961853032172
31
-1.7763568394002505e-14
0
ARC
5
150
100
AcDbEntity
8
0
100
AcDbCircle
10
152.50000000001506
20
-22.499961853032172
30
-1.5232259897857148e-11
40
2.5
210
0
220
0
230
1
100
AcDbArc
50
180
51
270.00000000000585
0
LINE
5
151
100
AcDbEntity
8
0
100
AcDbLine
10
150.00000000001506
20
-22.499961853031742
30
-1.5232259897857148e-11
11
150.00000000001506
21
3.0230508931066877
31
-1.7763568394002505e-14
0
ARC
5
152
100
AcDbEntity
8
0
100
AcDbCircle
10
147.50000000001506
20
3.0230508931077589
30
-6.9759309440093636e-10
40
2.5
210
-4.6505022055498557e-12
220
1.9919219061982733e-24
230
1
100
AcDbArc
50
0
51
90.000000000048203
0
ARC
5
153
100
AcDbEntity
8
0
100
AcDbCircle
10
147.50000013309798
20
8.0230508931077651
30
8.8817841970012523e-15
40
2.5
210
0
220
0
230
1
100
AcDbArc
50
180
51
269.99999694991595
0
LINE
5
154
100
AcDbEntity
8
0
100
AcDbLine
10
145.00000013309798
20
8.0230508931077633
30
8.8817841970012523e-15
11
145.00000013309798
21
86.000038146972912
31
0
0
ARC
5
155
100
AcDbEntity
8
0
100
AcDbCircle
10
147.50000013309798
20
86.000038146972898
30
0
40
2.5
210
0
220
-0
230
1
100
AcDbArc
50
89.999999999998693
51
180
0
LINE
5
156
100
AcDbEntity
8
0
100
AcDbLine
10
147.50000013309804
20
88.500038146972898
30
0
11
177.49999999999994
21
88.500038146972898
31
8.8817841970012523e-15
0
ARC
5
157
100
AcDbEntity
8
0
100
AcDbCircle
10
177.49999999999994
20
91.000038146972898
30
3.6415315207705135e-13
40
2.5
210
0
220
-1.4210854715202004e-13
230
1
100
AcDbArc
50
-90
51
0
0
LINE
5
158
100
AcDbEntity
8
0
100
AcDbLine
10
179.99999999999994
20
91.000038146972898
30
3.907985046680551e-13
11
179.99999999999983
21
309.50003814697283
31
0
0
ARC
5
159
100
AcDbEntity
8
0
100
AcDbCircle
10
178.99999999999977
20
309.50003814697288
30
2.9736213491556874e-10
40
1.0000000000000497
210
1.6520118606421507e-12
220
-5.8691251348437435e-26
230
1
100
AcDbArc
50
0
51
90
0
LINE
5
160
100
AcDbEntity
8
0
100
AcDbLine
10
178.99999999999977
20
310.50003814697288
30
1.6431300764452317e-12
11
70.798996999433101
21
310.50003814697288
31
8.8817841970012523e-15
0
ARC
5
161
100
AcDbEntity
8
0
100
AcDbCircle
10
70.798996999433086
20
309.50003814697288
30
3.2542861295807727e-10
40
1.0000000000000142
210
9.3085586816076738e-27
220
1.0480505352461328e-12
230
1
100
AcDbArc
50
89.99999999999919
51
180
0
LINE
5
162
100
AcDbEntity
8
0
100
AcDbLine
10
69.798996999433086
20
309.5000381469726
30
1.056932319443149e-12
11
69.798996999433371
21
308.4000392150906
31
0
0
ARC
5
163
100
AcDbEntity
8
0
100
AcDbCircle
10
68.798996999433385
20
308.40003921509037
30
3.5527136788005009e-14
40
1.0000000000000142
210
0
220
8.8817841970011261e-15
230
1
100
AcDbArc
50
-90
51
0
0
LINE
5
164
100
AcDbEntity
8
0
100
AcDbLine
10
68.798996999433385
20
307.40003921509037
30
4.4408920985006262e-14
11
-68.79899871605987
21
307.40003921509032
31
8.8817841970012523e-15
0
ARC
5
165
100
AcDbEntity
8
0
100
AcDbCircle
10
-68.79899871605987
20
308.40003921509032
30
-4.4408920985006262e-14
40
0.99999999999999645
210
0
220
0
230
1
100
AcDbArc
50
180
51
270
0
LINE
5
166
100
AcDbEntity
8
0
100
AcDbLine
10
-69.79899871605987
20
308.40003921509026
30
-4.4408920985006262e-14
11
-69.79899871605997
21
309.50003814697294
31
0
0
ARC
5
167
100
AcDbEntity
8
0
100
AcDbCircle
10
-70.79899871605997
20
309.50003814697288
30
9.7699626167013776e-13
40
0.99999999999999645
210
9.7699626167014119e-13
220
6.9419759659449532e-26
230
1
100
AcDbArc
50
0
51
90
0
LINE
5
168
100
AcDbEntity
8
0
100
AcDbLine
10
-70.79899871605997
20
310.50003814697288
30
9.681144774731365e-13
11
-179.00000268220919
21
310.50003814697288
31
8.8817841970012523e-15
0
ARC
5
169
100
AcDbEntity
8
0
100
AcDbCircle
10
-179.00000268220919
20
309.50003814697288
30
3.730349362740526e-13
40
0.99999999999997868
210
0
220
3.6415315207705912e-13
230
1
100
AcDbArc
50
90
51
180
0
LWPOLYLINE
5
170
100
AcDbEntity
8
0
100
AcDbPolyline
90
24
70
1
43
0.0
10
93.500000000000142
20
-101.50000000000027
10
93.500000000000156
20
-147.87500000000023
42
-0.41421356237309503
10
92.500000000000156
20
-148.87500000000023
10
67.500000000000199
20
-148.87500000000023
42
-0.41421356237309503
10
66.500000000000199
20
-147.87500000000023
10
66.500000000000199
20
-101.50000000000026
42
-0.41421356237309503
10
67.500000000000199
20
-100.50000000000026
10
69.000000291592784
20
-100.50000000000027
42
0.41421356237310025
10
70.000000291592826
20
-99.500000000000256
10
70.000000291592926
20
219.09967474313248
42
0.41421356237310281
10
69.000000291592841
20
220.09967474313257
10
64.000000291593139
20
220.09967474313257
42
-0.41421356237309814
10
59.000000291593082
20
225.09967474313257
10
59.000000291593082
20
279.10005177303776
42
-0.41421356237309137
10
64.000000291593025
20
284.10005177303776
10
96.000000291592755
20
284.10005177303776
42
-0.41421356237309293
10
101.00000029159276
20
279.10005177303782
10
101.00000029159276
20
225.0996747431326
42
-0.41421356237309709
10
96.000000291592755
20
220.09967474313257
10
91.000000291592926
20
220.09967474313254
42
0.4142135623730846
10
90.000000291592926
20
219.09967474313251
10
90.000000291592883
20
-99.500000000000284
42
0.41421356237309503
10
91.000000291592983
20
-100.50000000000033
10
92.500000000000142
20
-100.50000000000027
42
-0.41421356237309503
0
LWPOLYLINE
5
171
100
AcDbEntity
8
0
100
AcDbPolyline
90
10
70
1
43
0.0
10
141.41421356237294
20
-55.48034661075657
10
148.99999999999983
20
-55.48034661075657
42
-0.41421356237309503
10
149.99999999999983
20
-56.480346610756563
10
149.99999999999983
20
-68.48034661075657
42
-0.41421356237309503
10
148.99999999999983
20
-69.48034661075657
10
136.99999999999983
20
-69.48034661075657
42
-0.41421356237309503
10
135.99999999999983
20
-68.48034661075657
10
135.99999999999983
20
-60.894560173129648
42
-0.19891236737965962
10
136.29289321881328
20
-60.187453391943095
10
140.70710678118641
20
-55.773239829570016
42
-0.1989123673796564
0
LWPOLYLINE
5
172
100
AcDbEntity
8
0
100
AcDbPolyline
90
8
70
1
43
0.0
10
-34.779056191361171
20
-97.000000102501232
10
-8.2209438086384168
20
-97.00000010250119
42
-0.57735026918962196
10
-7.354918404853974
20
-98.500000102501161
10
-14.283121635129474
20
-110.50000010250116
42
-0.26794919243112569
10
-15.149147038913915
20
-111.00000010250116
10
-27.850852961085675
20
-111.00000010250115
42
-0.26794919243112048
10
-28.716878364870109
20
-110.50000010250116
10
-35.645081595145626
20
-98.500000102501133
42
-0.5773502691895992
0
CIRCLE
5
173
100
AcDbEntity
8
0
100
AcDbCircle
10
49.999999708407252
20
248.10582569978365
30
-4.4964038410567048e-14
40
1.800000000000002
210
-9.9364960100783903e-15
220
0
230
-1
0
CIRCLE
5
174
100
AcDbEntity
8
0
100
AcDbCircle
10
-110.00000029159274
20
248.10582569978365
30
-4.4964028759885324e-14
40
1.8000000000000158
210
-9.9364960100783903e-15
220
0
230
-1
0
CIRCLE
5
175
100
AcDbEntity
8
0
100
AcDbCircle
10
39.999996416482247
20
-84.00000010250119
30
6.4837025699473229e-13
40
2.8000000000000025
210
3.5527137317397998e-15
220
0
230
-1
0
CIRCLE
5
176
100
AcDbEntity
8
0
100
AcDbCircle
10
-3.5835177575715126e-06
20
-84.000000102501161
30
6.4837025911230416e-13
40
2.8000000000000007
210
3.5527137317397998e-15
220
0
230
-1
0
CIRCLE
5
177
100
AcDbEntity
8
0
100
AcDbCircle
10
59.999999999999787
20
-65.00000000000027
30
-6.0396132857244235e-13
40
1.8000000000000003
210
3.5527137317397998e-15
220
0
230
-1
0
CIRCLE
5
178
100
AcDbEntity
8
0
100
AcDbCircle
10
-60.000000000000213
20
-65.00000000000027
30
-6.0396132221972655e-13
40
1.8000000000000003
210
3.5527137317397998e-15
220
0
230
-1
0
CIRCLE
5
179
100
AcDbEntity
8
0
100
AcDbCircle
10
99.999999999999787
20
-65.00000000000027
30
-6.0396133069001432e-13
40
1.8000000000000003
210
3.5527137317397998e-15
220
0
230
-1
0
CIRCLE
5
180
100
AcDbEntity
8
0
100
AcDbCircle
10
165.00000435931426
20
-144.0000001025013
30
9.0594196387174778e-13
40
2.7999999999999998
210
3.5527137317397998e-15
220
0
230
-1
0
CIRCLE
5
181
100
AcDbEntity
8
0
100
AcDbCircle
10
165.00000388744414
20
-84.000000102501318
30
6.483702238351309e-13
40
2.7999999999999998
210
3.5527137317397998e-15
220
0
230
-1
0
CIRCLE
5
182
100
AcDbEntity
8
0
100
AcDbCircle
10
-164.99999999999986
20
-144.00000271325274
30
9.0594199682911159e-13
40
2.7999999999999998
210
3.5527137317397998e-15
220
0
230
-1
0
CIRCLE
5
183
100
AcDbEntity
8
0
100
AcDbCircle
10
-100.00000000000021
20
-65.00000000000027
30
-6.0396132010215448e-13
40
1.8000000000000003
210
3.5527137317397998e-15
220
0
230
-1
0
CIRCLE
5
184
100
AcDbEntity
8
0
100
AcDbCircle
10
-164.99999999999986
20
-84.000002713252741
30
6.4837025511607527e-13
40
2.7999999999999998
210
3.5527137317397998e-15
220
0
230
-1
0
CIRCLE
5
185
100
AcDbEntity
8
0
100
AcDbCircle
10
-164.99999999999986
20
114.50003814697284
30
-1.953992435990437e-13
40
2.7999999999999998
210
3.5527137317397998e-15
220
0
230
-1
0
CIRCLE
5
186
100
AcDbEntity
8
0
100
AcDbCircle
10
165.00000232634034
20
114.50003814697281
30
-1.9539926933383314e-13
40
2.7999999999999998
210
3.5527137317397998e-15
220
0
230
-1
0
CIRCLE
5
187
100
AcDbEntity
8
0
100
AcDbCircle
10
165.00000100510402
20
282.50003814697283
30
-9.0594200039995891e-13
40
2.7999999999999998
210
3.5527137317397998e-15
220
0
230
-1
0
CIRCLE
5
188
100
AcDbEntity
8
0
100
AcDbCircle
10
100.0010787123141
20
205.00047843741143
30
6.4836640873111062e-13
40
1.8000000000000265
210
3.5527137317397998e-15
220
0
230
-1
0
CIRCLE
5
189
100
AcDbEntity
8
0
100
AcDbCircle
10
60.001078712314104
20
205.00047843741143
30
6.4836641084868248e-13
40
1.8000000000000265
210
3.5527137317397998e-15
220
0
230
-1
0
CIRCLE
5
190
100
AcDbEntity
8
0
100
AcDbCircle
10
-59.998921287685896
20
205.00047843741143
30
6.4836641720139849e-13
40
1.8000000000000265
210
3.5527137317397998e-15
220
0
230
-1
0
CIRCLE
5
191
100
AcDbEntity
8
0
100
AcDbCircle
10
-99.998921287685903
20
205.00047843741143
30
6.4836641931897035e-13
40
1.8000000000000265
210
3.5527137317397998e-15
220
0
230
-1
0
CIRCLE
5
192
100
AcDbEntity
8
0
100
AcDbCircle
10
-164.99999999999986
20
282.50003814188824
30
-9.0594197935914389e-13
40
2.7999999999999998
210
3.5527137317397998e-15
220
0
230
-1
0
CIRCLE
5
193
100
AcDbEntity
8
0
100
AcDbCircle
10
100.00053935615695
20
70.000239218705545
30
-1.9214719549704497e-18
40
1.8000000000000003
210
3.5527137317397998e-15
220
0
230
-1
0
CIRCLE
5
194
100
AcDbEntity
8
0
100
AcDbCircle
10
60.000539356156949
20
70.000239218705545
30
-1.9193543830152779e-18
40
1.8000000000000003
210
3.5527137317397998e-15
220
0
230
-1
0
CIRCLE
5
195
100
AcDbEntity
8
0
100
AcDbCircle
10
-59.999460643843051
20
70.000239218705545
30
-1.9130016671497625e-18
40
1.8000000000000003
210
3.5527137317397998e-15
220
0
230
-1
0
CIRCLE
5
196
100
AcDbEntity
8
0
100
AcDbCircle
10
-99.999460643843051
20
70.000239218705545
30
-1.9108840951945907e-18
40
1.8000000000000003
210
3.5527137317397998e-15
220
0
230
-1
0
CIRCLE
5
197
100
AcDbEntity
8
0
100
AcDbCircle
10
-50.000000291592741
20
248.10582569978365
30
-4.3853809354265782e-14
40
1.8000000000000158
210
-9.9364960100783903e-15
220
0
230
-1
0
CIRCLE
5
198
100
AcDbEntity
8
0
100
AcDbCircle
10
109.99999970840726
20
248.10582569978365
30
-4.3853819004947443e-14
40
1.800000000000002
210
-9.9364960100783903e-15
220
0
230
-1
0
ENDSEC
0
SECTION
2
OBJECTS
0
DICTIONARY
5
C
100
AcDbDictionary
3
ACAD_GROUP
350
D
3
ACAD_MLINESTYLE
350
17
0
DICTIONARY
5
D
100
AcDbDictionary
0
DICTIONARY
5
1A
330
C
100
AcDbDictionary
0
DICTIONARY
5
17
100
AcDbDictionary
0
ENDSEC
0
EOF
